<?xml version="1.0" encoding="UTF-8" standalone="no"?>
<!DOCTYPE svg PUBLIC "-//W3C//DTD SVG 1.1//EN" "http://www.w3.org/Graphics/SVG/1.1/DTD/svg11.dtd">
<svg width="100%" height="100%" viewBox="0 0 49 37" version="1.1" xmlns="http://www.w3.org/2000/svg" xmlns:xlink="http://www.w3.org/1999/xlink" xml:space="preserve" xmlns:serif="http://www.serif.com/" style="fill-rule:evenodd;clip-rule:evenodd;stroke-linejoin:bevel;">
    <g transform="matrix(0.2,0,0,0.2,-41,-69)">
        <path d="M212.598,386.198L2764.6,386.198" style="fill:none;fill-rule:nonzero;stroke:black;stroke-width:2.73px;"/>
    </g>
    <g transform="matrix(0.2,0,0,0.2,-41,-69)">
        <path d="M212.598,410.998L2764.6,410.998" style="fill:none;fill-rule:nonzero;stroke:black;stroke-width:2.73px;"/>
    </g>
    <g transform="matrix(0.2,0,0,0.2,-41,-69)">
        <path d="M212.598,435.798L2764.6,435.798" style="fill:none;fill-rule:nonzero;stroke:black;stroke-width:2.73px;"/>
    </g>
    <g transform="matrix(0.2,0,0,0.2,-41,-69)">
        <path d="M212.598,460.598L2764.6,460.598" style="fill:none;fill-rule:nonzero;stroke:black;stroke-width:2.73px;"/>
    </g>
    <g transform="matrix(0.2,0,0,0.2,-41,-69)">
        <path d="M212.598,485.398L2764.6,485.398" style="fill:none;fill-rule:nonzero;stroke:black;stroke-width:2.73px;"/>
    </g>
    <g transform="matrix(0.2,0,0,0.2,-41,-69)">
        <path d="M357.911,402.765L357.911,485.398" style="fill:none;fill-rule:nonzero;stroke:black;stroke-width:2.48px;"/>
    </g>
    <g transform="matrix(0.1984,0,0,0.1984,30.3342,10.7196)">
        <path d="M0,4.203C0,8.5 3.094,13.297 11.203,13.297C21.594,13.297 32.5,4.797 32.5,-4C32.5,-9.906 27.5,-13.203 21.297,-13.203C11.594,-13.203 0,-5 0,4.203" style="fill-rule:nonzero;"/>
    </g>
    <g transform="matrix(0.1984,0,0,0.1984,5.2396,23.1196)">
        <path d="M42,20.594C40,21 38.109,21.203 36.203,21.203C21.906,21.203 9.703,11.203 9.703,-3.906C9.703,-16.094 18.297,-27 27.109,-34.609C28.797,-36.109 30.406,-37.5 31.906,-39C32.797,-33.609 33.5,-28.906 34.203,-24.797C25.094,-22.094 18.906,-12.5 18.906,-3.094C18.906,3.906 24.406,13.5 32.406,13.5C33.203,13.5 34.109,13.094 34.109,12.203C34.109,11.297 33.109,10.797 31.906,10C28,7.594 25.797,5 25.797,0.094C25.797,-6 30.297,-10.906 36.203,-12.297L42,20.594M33.203,-82.203C34.109,-86.203 38.703,-96.703 43.906,-96.703C45.406,-96.703 47.797,-91.812 47.797,-84.906C47.797,-74.5 40.109,-66.703 33.203,-59.906C32.609,-63.906 32.109,-67.797 32.109,-72C32.109,-75.703 32.406,-79.109 33.203,-82.203M56.203,2.094C56.203,9.203 53.297,16.5 46.203,19.406C44.109,7.406 41.406,-8.5 40.703,-12.906C49.703,-12.906 56.203,-6.797 56.203,2.094M12.203,51.297C12.203,57.906 17.297,66.609 30.797,66.609C35.5,66.609 39.609,65.406 43.203,63.203C48.609,59.406 50,52.797 50,46.5C50,42.609 49.406,38.109 48.406,32.406C48.109,30.406 47.5,27.406 46.906,23.5C56.703,20.297 64,10.094 64,-0.203C64,-15.297 53.297,-25.5 38.703,-25.5C37.703,-31.5 36.703,-37.406 35.797,-43C46.406,-54.109 53.703,-66.609 53.703,-82.5C53.703,-91.609 50.906,-99 49.297,-102.609C46.906,-107.703 44,-111.203 42.203,-111.203C41.5,-111.203 38.406,-110 35.109,-106.109C28.703,-98.5 26.906,-85.703 26.906,-77.312C26.906,-71.906 27.406,-67 29.109,-55.797C29,-55.703 23.797,-50.406 21.703,-48.703C12.594,-40.203 0,-28.109 0,-8.094C0,10.594 16.297,25.297 34.906,25.297C37.797,25.297 40.5,25 42.797,24.594C44.703,34.203 45.797,41.203 45.797,46.5C45.797,56.906 40.5,62.406 30.406,62.406C28,62.406 25.906,61.906 25.703,61.906C25.609,61.797 25.406,61.703 25.406,61.609C25.406,61.406 25.609,61.297 25.906,61.203C30.609,60.5 35.297,56.5 35.297,50.109C35.297,44.703 31.203,39 23.703,39C16.703,39 12.203,44.703 12.203,51.297" style="fill-rule:nonzero;"/>
    </g>
</svg>
