<?xml version="1.0" encoding="UTF-8" standalone="no"?>
<!DOCTYPE svg PUBLIC "-//W3C//DTD SVG 1.1//EN" "http://www.w3.org/Graphics/SVG/1.1/DTD/svg11.dtd">
<svg width="100%" height="100%" viewBox="0 0 48 38" version="1.1" xmlns="http://www.w3.org/2000/svg" xmlns:xlink="http://www.w3.org/1999/xlink" xml:space="preserve" xmlns:serif="http://www.serif.com/" style="fill-rule:evenodd;clip-rule:evenodd;stroke-linejoin:bevel;">
    <g transform="matrix(0.2,0,0,0.2,-40,-392)">
        <path d="M212.598,2007L2764.6,2007" style="fill:none;fill-rule:nonzero;stroke:black;stroke-width:2.73px;"/>
    </g>
    <g transform="matrix(0.2,0,0,0.2,-40,-392)">
        <path d="M212.598,2031.8L2764.6,2031.8" style="fill:none;fill-rule:nonzero;stroke:black;stroke-width:2.73px;"/>
    </g>
    <g transform="matrix(0.2,0,0,0.2,-40,-392)">
        <path d="M212.598,2056.6L2764.6,2056.6" style="fill:none;fill-rule:nonzero;stroke:black;stroke-width:2.73px;"/>
    </g>
    <g transform="matrix(0.2,0,0,0.2,-40,-392)">
        <path d="M212.598,2081.4L2764.6,2081.4" style="fill:none;fill-rule:nonzero;stroke:black;stroke-width:2.73px;"/>
    </g>
    <g transform="matrix(0.2,0,0,0.2,-40,-392)">
        <path d="M212.598,2106.2L2764.6,2106.2" style="fill:none;fill-rule:nonzero;stroke:black;stroke-width:2.73px;"/>
    </g>
    <g transform="matrix(0.2,0,0,0.2,-40,-392)">
        <path d="M234.083,1929.09L231.911,1929.09L213.286,1948.37L213.286,1950.04L224.552,1950.04L223.911,1952.48C223.114,1955.52 223.114,1955.52 219.63,1955.52L218.911,1955.52L218.677,1957.4L231.114,1957.4L231.317,1955.52L230.598,1955.52C227.958,1955.52 227.395,1955.32 227.395,1954.45C227.395,1954.12 227.473,1953.73 227.802,1952.48L228.473,1950.04L233.036,1950.04L233.63,1947.88L229.036,1947.88L234.083,1929.09M225.161,1947.88L216.192,1947.88L228.552,1935.17L225.161,1947.88M250.63,1942.6C253.755,1941.12 256.677,1939.48 256.677,1935.48C256.677,1931.84 253.598,1929.24 249.317,1929.24C244.161,1929.24 240.161,1932.96 240.161,1937.81C240.161,1940.24 241.005,1941.81 243.161,1943.37C238.442,1945.17 235.911,1948.09 235.911,1951.73C235.911,1955.6 239.114,1957.99 244.239,1957.99C250.395,1957.99 254.802,1954.24 254.802,1949.04C254.802,1945.88 253.083,1944.2 250.63,1942.6M248.911,1941.65C244.833,1939.73 243.364,1938.17 243.364,1935.88C243.364,1933.12 245.833,1930.96 248.989,1930.96C251.755,1930.96 253.677,1932.73 253.677,1935.24C253.677,1938.24 251.598,1940.6 248.911,1941.65M244.677,1944.45C246.598,1945.32 247.239,1945.63 248.239,1946.24C250.239,1947.45 251.317,1949.04 251.317,1950.84C251.317,1953.92 248.442,1956.24 244.677,1956.24C241.27,1956.24 239.161,1954.32 239.161,1951.24C239.161,1948.24 241.083,1945.88 244.677,1944.45" style="fill-rule:nonzero;"/>
    </g>
    <g transform="matrix(0.2,0,0,0.2,-40,-392)">
        <path d="M387.671,2089.83L387.671,2007" style="fill:none;fill-rule:nonzero;stroke:black;stroke-width:2.48px;"/>
    </g>
    <g transform="matrix(0.1984,0,0,0.1984,31.3342,26.76)">
        <path d="M0,4.203C0,8.5 3.094,13.297 11.203,13.297C21.594,13.297 32.5,4.797 32.5,-4C32.5,-9.906 27.5,-13.203 21.297,-13.203C11.594,-13.203 0,-5 0,4.203" style="fill-rule:nonzero;"/>
    </g>
    <g transform="matrix(0.1984,0,0,0.1984,6.2396,24.28)">
        <path d="M42,20.594C40,21 38.109,21.203 36.203,21.203C21.906,21.203 9.703,11.203 9.703,-3.906C9.703,-16.094 18.297,-27 27.109,-34.609C28.797,-36.109 30.406,-37.5 31.906,-39C32.797,-33.609 33.5,-28.906 34.203,-24.797C25.094,-22.094 18.906,-12.5 18.906,-3.094C18.906,3.906 24.406,13.5 32.406,13.5C33.203,13.5 34.109,13.094 34.109,12.203C34.109,11.297 33.109,10.797 31.906,10C28,7.594 25.797,5 25.797,0.094C25.797,-6 30.297,-10.906 36.203,-12.297L42,20.594M33.203,-82.203C34.109,-86.203 38.703,-96.703 43.906,-96.703C45.406,-96.703 47.797,-91.812 47.797,-84.906C47.797,-74.5 40.109,-66.703 33.203,-59.906C32.609,-63.906 32.109,-67.797 32.109,-72C32.109,-75.703 32.406,-79.109 33.203,-82.203M56.203,2.094C56.203,9.203 53.297,16.5 46.203,19.406C44.109,7.406 41.406,-8.5 40.703,-12.906C49.703,-12.906 56.203,-6.797 56.203,2.094M12.203,51.297C12.203,57.906 17.297,66.609 30.797,66.609C35.5,66.609 39.609,65.406 43.203,63.203C48.609,59.406 50,52.797 50,46.5C50,42.609 49.406,38.109 48.406,32.406C48.109,30.406 47.5,27.406 46.906,23.5C56.703,20.297 64,10.094 64,-0.203C64,-15.297 53.297,-25.5 38.703,-25.5C37.703,-31.5 36.703,-37.406 35.797,-43C46.406,-54.109 53.703,-66.609 53.703,-82.5C53.703,-91.609 50.906,-99 49.297,-102.609C46.906,-107.703 44,-111.203 42.203,-111.203C41.5,-111.203 38.406,-110 35.109,-106.109C28.703,-98.5 26.906,-85.703 26.906,-77.312C26.906,-71.906 27.406,-67 29.109,-55.797C29,-55.703 23.797,-50.406 21.703,-48.703C12.594,-40.203 0,-28.109 0,-8.094C0,10.594 16.297,25.297 34.906,25.297C37.797,25.297 40.5,25 42.797,24.594C44.703,34.203 45.797,41.203 45.797,46.5C45.797,56.906 40.5,62.406 30.406,62.406C28,62.406 25.906,61.906 25.703,61.906C25.609,61.797 25.406,61.703 25.406,61.609C25.406,61.406 25.609,61.297 25.906,61.203C30.609,60.5 35.297,56.5 35.297,50.109C35.297,44.703 31.203,39 23.703,39C16.703,39 12.203,44.703 12.203,51.297" style="fill-rule:nonzero;"/>
    </g>
</svg>
