<?xml version="1.0" encoding="UTF-8" standalone="no"?>
<!DOCTYPE svg PUBLIC "-//W3C//DTD SVG 1.1//EN" "http://www.w3.org/Graphics/SVG/1.1/DTD/svg11.dtd">
<svg width="100%" height="100%" viewBox="0 0 437 55" version="1.1" xmlns="http://www.w3.org/2000/svg" xmlns:xlink="http://www.w3.org/1999/xlink" xml:space="preserve" xmlns:serif="http://www.serif.com/" style="fill-rule:evenodd;clip-rule:evenodd;stroke-linejoin:bevel;">
    <g transform="matrix(0.2,0,0,0.2,-63,-115)">
        <path d="M336.598,634.198L2764.6,634.198" style="fill:none;fill-rule:nonzero;stroke:black;stroke-width:2.73px;"/>
    </g>
    <g transform="matrix(0.2,0,0,0.2,-63,-115)">
        <path d="M336.598,658.998L2764.6,658.998" style="fill:none;fill-rule:nonzero;stroke:black;stroke-width:2.73px;"/>
    </g>
    <g transform="matrix(0.2,0,0,0.2,-63,-115)">
        <path d="M336.598,683.798L2764.6,683.798" style="fill:none;fill-rule:nonzero;stroke:black;stroke-width:2.73px;"/>
    </g>
    <g transform="matrix(0.2,0,0,0.2,-63,-115)">
        <path d="M336.598,708.598L2764.6,708.598" style="fill:none;fill-rule:nonzero;stroke:black;stroke-width:2.73px;"/>
    </g>
    <g transform="matrix(0.2,0,0,0.2,-63,-115)">
        <path d="M336.598,733.398L2764.6,733.398" style="fill:none;fill-rule:nonzero;stroke:black;stroke-width:2.73px;"/>
    </g>
    <g transform="matrix(0.2,0,0,0.2,-63,-115)">
        <path d="M1993.8,632.834L1993.8,734.762" style="fill:none;fill-rule:nonzero;stroke:black;stroke-width:4.46px;"/>
    </g>
    <g transform="matrix(0.2,0,0,0.2,-63,-115)">
        <path d="M1248.05,632.834L1248.05,734.762" style="fill:none;fill-rule:nonzero;stroke:black;stroke-width:4.46px;"/>
    </g>
    <g transform="matrix(0.2,0,0,0.2,-63,-115)">
        <path d="M527.345,758.198L575.937,758.198" style="fill:none;fill-rule:nonzero;stroke:black;stroke-width:3.97px;"/>
    </g>
    <g transform="matrix(0.2,0,0,0.2,-63,-115)">
        <path d="M2383.42,638.365L2383.42,720.998" style="fill:none;fill-rule:nonzero;stroke:black;stroke-width:2.48px;"/>
    </g>
    <g transform="matrix(0.2,0,0,0.2,-63,-115)">
        <path d="M2205.85,650.765L2205.85,733.398" style="fill:none;fill-rule:nonzero;stroke:black;stroke-width:2.48px;"/>
    </g>
    <g transform="matrix(0.2,0,0,0.2,-63,-115)">
        <path d="M744.1,741.83L744.1,658.998" style="fill:none;fill-rule:nonzero;stroke:black;stroke-width:2.48px;"/>
    </g>
    <g transform="matrix(0.2,0,0,0.2,-63,-115)">
        <path d="M2028.28,663.165L2028.28,745.798" style="fill:none;fill-rule:nonzero;stroke:black;stroke-width:2.48px;"/>
    </g>
    <g transform="matrix(0.2,0,0,0.2,-63,-115)">
        <path d="M566.529,754.23L566.529,671.398" style="fill:none;fill-rule:nonzero;stroke:black;stroke-width:2.48px;"/>
    </g>
    <g transform="matrix(0.2,0,0,0.2,-63,-115)">
        <path d="M1489.85,692.23L1489.85,615.598" style="fill:none;fill-rule:nonzero;stroke:black;stroke-width:2.48px;"/>
    </g>
    <g transform="matrix(0.2,0,0,0.2,-63,-115)">
        <path d="M1815.24,675.565L1815.24,751.998" style="fill:none;fill-rule:nonzero;stroke:black;stroke-width:2.48px;"/>
    </g>
    <g transform="matrix(0.2,0,0,0.2,-63,-115)">
        <path d="M921.671,729.43L921.671,646.598" style="fill:none;fill-rule:nonzero;stroke:black;stroke-width:2.48px;"/>
    </g>
    <g transform="matrix(0.2,0,0,0.2,-63,-115)">
        <path d="M1637.67,687.965L1637.67,758.198" style="fill:none;fill-rule:nonzero;stroke:black;stroke-width:2.48px;"/>
    </g>
    <g transform="matrix(0.2,0,0,0.2,-63,-115)">
        <path d="M1099.24,717.03L1099.24,634.198" style="fill:none;fill-rule:nonzero;stroke:black;stroke-width:2.48px;"/>
    </g>
    <g transform="matrix(0.2,0,0,0.2,-63,-115)">
        <path d="M1312.28,704.63L1312.28,621.798" style="fill:none;fill-rule:nonzero;stroke:black;stroke-width:2.48px;"/>
    </g>
    <g transform="matrix(0.1984,0,0,0.1984,79.62,34.1596)">
        <path d="M0,4.203C0,8.5 3.094,13.297 11.203,13.297C21.594,13.297 32.5,4.797 32.5,-4C32.5,-9.906 27.5,-13.203 21.297,-13.203C11.594,-13.203 0,-5 0,4.203" style="fill-rule:nonzero;"/>
    </g>
    <g transform="matrix(0.1984,0,0,0.1984,115.1342,31.6796)">
        <path d="M0,4.203C0,8.5 3.094,13.297 11.203,13.297C21.594,13.297 32.5,4.797 32.5,-4C32.5,-9.906 27.5,-13.203 21.297,-13.203C11.594,-13.203 0,-5 0,4.203" style="fill-rule:nonzero;"/>
    </g>
    <g transform="matrix(0.1984,0,0,0.1984,150.648,29.1996)">
        <path d="M0,4.203C0,8.5 3.094,13.297 11.203,13.297C21.594,13.297 32.5,4.797 32.5,-4C32.5,-9.906 27.5,-13.203 21.297,-13.203C11.594,-13.203 0,-5 0,4.203" style="fill-rule:nonzero;"/>
    </g>
    <g transform="matrix(0.1984,0,0,0.1984,193.256,26.7196)">
        <path d="M0,4.203C0,8.5 3.094,13.297 11.203,13.297C21.594,13.297 32.5,4.797 32.5,-4C32.5,-9.906 27.5,-13.203 21.297,-13.203C11.594,-13.203 0,-5 0,4.203" style="fill-rule:nonzero;"/>
    </g>
    <g transform="matrix(0.1984,0,0,0.1984,228.77,24.2396)">
        <path d="M0,4.203C0,8.5 3.094,13.297 11.203,13.297C21.594,13.297 32.5,4.797 32.5,-4C32.5,-9.906 27.5,-13.203 21.297,-13.203C11.594,-13.203 0,-5 0,4.203" style="fill-rule:nonzero;"/>
    </g>
    <g transform="matrix(0.1984,0,0,0.1984,264.286,21.7596)">
        <path d="M0,4.203C0,8.5 3.094,13.297 11.203,13.297C21.594,13.297 32.5,4.797 32.5,-4C32.5,-9.906 27.5,-13.203 21.297,-13.203C11.594,-13.203 0,-5 0,4.203" style="fill-rule:nonzero;"/>
    </g>
    <g transform="matrix(0.1984,0,0,0.1984,299.8,19.2796)">
        <path d="M0,4.203C0,8.5 3.094,13.297 11.203,13.297C21.594,13.297 32.5,4.797 32.5,-4C32.5,-9.906 27.5,-13.203 21.297,-13.203C11.594,-13.203 0,-5 0,4.203" style="fill-rule:nonzero;"/>
    </g>
    <g transform="matrix(0.1984,0,0,0.1984,342.408,16.7996)">
        <path d="M0,4.203C0,8.5 3.094,13.297 11.203,13.297C21.594,13.297 32.5,4.797 32.5,-4C32.5,-9.906 27.5,-13.203 21.297,-13.203C11.594,-13.203 0,-5 0,4.203" style="fill-rule:nonzero;"/>
    </g>
    <g transform="matrix(0.1984,0,0,0.1984,377.922,14.3196)">
        <path d="M0,4.203C0,8.5 3.094,13.297 11.203,13.297C21.594,13.297 32.5,4.797 32.5,-4C32.5,-9.906 27.5,-13.203 21.297,-13.203C11.594,-13.203 0,-5 0,4.203" style="fill-rule:nonzero;"/>
    </g>
    <g transform="matrix(0.1984,0,0,0.1984,413.436,11.8396)">
        <path d="M0,4.203C0,8.5 3.094,13.297 11.203,13.297C21.594,13.297 32.5,4.797 32.5,-4C32.5,-9.906 27.5,-13.203 21.297,-13.203C11.594,-13.203 0,-5 0,4.203" style="fill-rule:nonzero;"/>
    </g>
    <g transform="matrix(0.1984,0,0,0.1984,44.1058,36.6396)">
        <path d="M0,4.203C0,8.5 3.094,13.297 11.203,13.297C21.594,13.297 32.5,4.797 32.5,-4C32.5,-9.906 27.5,-13.203 21.297,-13.203C11.594,-13.203 0,-5 0,4.203" style="fill-rule:nonzero;"/>
    </g>
    <g transform="matrix(0.1984,0,0,0.1984,8.0396,26.7196)">
        <path d="M42,20.594C40,21 38.109,21.203 36.203,21.203C21.906,21.203 9.703,11.203 9.703,-3.906C9.703,-16.094 18.297,-27 27.109,-34.609C28.797,-36.109 30.406,-37.5 31.906,-39C32.797,-33.609 33.5,-28.906 34.203,-24.797C25.094,-22.094 18.906,-12.5 18.906,-3.094C18.906,3.906 24.406,13.5 32.406,13.5C33.203,13.5 34.109,13.094 34.109,12.203C34.109,11.297 33.109,10.797 31.906,10C28,7.594 25.797,5 25.797,0.094C25.797,-6 30.297,-10.906 36.203,-12.297L42,20.594M33.203,-82.203C34.109,-86.203 38.703,-96.703 43.906,-96.703C45.406,-96.703 47.797,-91.812 47.797,-84.906C47.797,-74.5 40.109,-66.703 33.203,-59.906C32.609,-63.906 32.109,-67.797 32.109,-72C32.109,-75.703 32.406,-79.109 33.203,-82.203M56.203,2.094C56.203,9.203 53.297,16.5 46.203,19.406C44.109,7.406 41.406,-8.5 40.703,-12.906C49.703,-12.906 56.203,-6.797 56.203,2.094M12.203,51.297C12.203,57.906 17.297,66.609 30.797,66.609C35.5,66.609 39.609,65.406 43.203,63.203C48.609,59.406 50,52.797 50,46.5C50,42.609 49.406,38.109 48.406,32.406C48.109,30.406 47.5,27.406 46.906,23.5C56.703,20.297 64,10.094 64,-0.203C64,-15.297 53.297,-25.5 38.703,-25.5C37.703,-31.5 36.703,-37.406 35.797,-43C46.406,-54.109 53.703,-66.609 53.703,-82.5C53.703,-91.609 50.906,-99 49.297,-102.609C46.906,-107.703 44,-111.203 42.203,-111.203C41.5,-111.203 38.406,-110 35.109,-106.109C28.703,-98.5 26.906,-85.703 26.906,-77.312C26.906,-71.906 27.406,-67 29.109,-55.797C29,-55.703 23.797,-50.406 21.703,-48.703C12.594,-40.203 0,-28.109 0,-8.094C0,10.594 16.297,25.297 34.906,25.297C37.797,25.297 40.5,25 42.797,24.594C44.703,34.203 45.797,41.203 45.797,46.5C45.797,56.906 40.5,62.406 30.406,62.406C28,62.406 25.906,61.906 25.703,61.906C25.609,61.797 25.406,61.703 25.406,61.609C25.406,61.406 25.609,61.297 25.906,61.203C30.609,60.5 35.297,56.5 35.297,50.109C35.297,44.703 31.203,39 23.703,39C16.703,39 12.203,44.703 12.203,51.297" style="fill-rule:nonzero;"/>
    </g>
    <g transform="matrix(0.1984,0,0,0.1984,25.419,16.7996)">
        <path d="M20.797,12.703L20.797,20.094L12.5,20.094C11.797,20.094 11.094,20.703 11.094,21.5L11.094,23.406C11.094,24.203 11.797,24.797 12.5,24.797L42.797,24.797C43.609,24.797 44.203,24.203 44.203,23.406L44.203,21.5C44.203,20.703 43.609,20.094 42.797,20.094L33.797,20.094L33.797,12.703L42.797,12.703C43.609,12.703 44.203,12 44.203,11.203L44.203,9.297C44.203,8.594 43.609,7.906 42.797,7.906L33.797,7.906L33.797,-8C33.797,-8.594 33.5,-9.094 33.109,-9.297L31.906,-9.906C31.703,-10 31.609,-10 31.406,-10C31,-10 30.609,-10 30.297,-9.703L21.203,-1.406C20.906,-1.094 20.797,-0.703 20.797,-0.297L20.797,7.906L9.203,7.906C9.203,7.906 20.406,-4.094 32.203,-19.906C32.609,-20.406 32.703,-20.906 32.703,-21.297C32.703,-21.797 32.5,-22.203 32.406,-22.297L30.203,-24.5C29.906,-24.703 29.609,-24.906 29.203,-24.906L14.297,-24.906C13.594,-24.906 13.094,-24.297 13,-23.703C13,-23.703 12.5,-16.297 9.906,-8.203C7.297,-0.094 4.297,4.906 1.703,8.594C1.703,8.594 1.406,9.094 1.406,9.703C1.406,9.906 1.406,10.094 1.5,10.297C1.797,11 2.5,12.094 2.5,12.094C2.5,12.094 2.703,12.703 3.594,12.703L20.797,12.703" style="fill-rule:nonzero;"/>
    </g>
    <g transform="matrix(0.1984,0,0,0.1984,25.419,26.7196)">
        <path d="M20.797,12.703L20.797,20.094L12.5,20.094C11.797,20.094 11.094,20.703 11.094,21.5L11.094,23.406C11.094,24.203 11.797,24.797 12.5,24.797L42.797,24.797C43.609,24.797 44.203,24.203 44.203,23.406L44.203,21.5C44.203,20.703 43.609,20.094 42.797,20.094L33.797,20.094L33.797,12.703L42.797,12.703C43.609,12.703 44.203,12 44.203,11.203L44.203,9.297C44.203,8.594 43.609,7.906 42.797,7.906L33.797,7.906L33.797,-8C33.797,-8.594 33.5,-9.094 33.109,-9.297L31.906,-9.906C31.703,-10 31.609,-10 31.406,-10C31,-10 30.609,-10 30.297,-9.703L21.203,-1.406C20.906,-1.094 20.797,-0.703 20.797,-0.297L20.797,7.906L9.203,7.906C9.203,7.906 20.406,-4.094 32.203,-19.906C32.609,-20.406 32.703,-20.906 32.703,-21.297C32.703,-21.797 32.5,-22.203 32.406,-22.297L30.203,-24.5C29.906,-24.703 29.609,-24.906 29.203,-24.906L14.297,-24.906C13.594,-24.906 13.094,-24.297 13,-23.703C13,-23.703 12.5,-16.297 9.906,-8.203C7.297,-0.094 4.297,4.906 1.703,8.594C1.703,8.594 1.406,9.094 1.406,9.703C1.406,9.906 1.406,10.094 1.5,10.297C1.797,11 2.5,12.094 2.5,12.094C2.5,12.094 2.703,12.703 3.594,12.703L20.797,12.703" style="fill-rule:nonzero;"/>
    </g>
    <g transform="matrix(0.2,0,0,0.2,-63,-115)">
        <path d="M711.665,833.39L728.462,833.39C732.915,833.39 736.322,832.687 738.962,831.187C744.009,828.344 746.822,822.64 746.822,815.14C746.822,808.234 744.322,802.844 739.712,799.844C736.962,798.094 733.259,797.281 727.556,797.281L711.665,797.281L711.665,799.64L712.619,799.64C715.415,799.687 716.369,799.844 716.759,800.344C717.056,800.781 717.056,800.89 717.056,803.437L717.056,827.234C717.056,829.797 717.056,829.89 716.759,830.344C716.369,830.844 715.415,830.984 712.619,831.047L711.665,831.047L711.665,833.39M725.509,831.047C722.962,831.047 722.665,830.734 722.665,828.297L722.665,802.437C722.665,799.984 723.009,799.64 725.509,799.64L728.119,799.64C736.665,799.64 740.212,804.281 740.212,815.344C740.212,826.547 737.009,831.047 728.915,831.047L725.509,831.047" style="fill-rule:nonzero;"/>
    </g>
    <g transform="matrix(0.2,0,0,0.2,-63,-115)">
        <path d="M1309.39,796.937L1307.5,796.937L1305.55,799.937C1302.3,797.39 1300.1,796.531 1296.44,796.531C1292.49,796.531 1289.39,797.64 1286.24,800.187C1281.3,804.187 1278.99,809.234 1278.99,815.984C1278.99,821.094 1280.44,825.344 1283.39,828.594C1286.49,832.094 1291.1,834.14 1295.89,834.14C1300.1,834.14 1303.05,832.844 1306.3,829.594L1308.14,834.094L1310.25,834.094L1310.25,823.094C1310.25,820.547 1310.25,820.437 1310.55,819.984C1311,819.437 1311.89,819.297 1314.75,819.297L1315.5,819.297L1315.5,816.937L1299.6,816.937L1299.6,819.297L1300.55,819.297C1304.75,819.297 1305.1,819.547 1305.1,822.344C1305.1,824.484 1304.75,826.437 1304.1,827.64C1302.85,830.094 1299.64,831.797 1296.39,831.797C1293.14,831.797 1289.94,830.14 1288.24,827.64C1286.39,824.844 1285.6,821.344 1285.6,815.984C1285.6,804.844 1289.3,798.89 1296.24,798.89C1301.94,798.89 1305.89,802.984 1307.94,810.984L1310.1,810.984L1309.39,796.937" style="fill-rule:nonzero;"/>
    </g>
    <g transform="matrix(0.2,0,0,0.2,-63,-115)">
        <path d="M1844.06,796.937L1842.16,796.937L1840.16,799.89C1836.52,797.234 1834.66,796.531 1831.2,796.531C1826.45,796.531 1822.41,798.531 1819.06,802.531C1815.86,806.344 1814.36,810.547 1814.36,815.687C1814.36,826.484 1821.41,834.14 1831.27,834.14C1839.27,834.14 1844.36,829.437 1845.52,821.047L1843.16,820.64C1841.81,828.094 1838.02,831.797 1831.86,831.797C1824.45,831.797 1820.95,826.687 1820.95,815.89C1820.95,810.187 1821.7,806.437 1823.41,803.437C1824.95,800.64 1828.02,798.89 1831.27,798.89C1834.77,798.89 1837.86,800.734 1839.77,803.937C1840.72,805.594 1841.41,807.437 1842.61,811.39L1844.81,811.39L1844.06,796.937" style="fill-rule:nonzero;"/>
    </g>
    <g transform="matrix(0.2,0,0,0.2,-63,-115)">
        <path d="M565.594,796.937L563.688,796.937L561.688,799.89C558.047,797.234 556.188,796.531 552.735,796.531C547.985,796.531 543.938,798.531 540.594,802.531C537.391,806.344 535.891,810.547 535.891,815.687C535.891,826.484 542.938,834.14 552.797,834.14C560.797,834.14 565.891,829.437 567.047,821.047L564.688,820.64C563.344,828.094 559.547,831.797 553.391,831.797C545.985,831.797 542.485,826.687 542.485,815.89C542.485,810.187 543.235,806.437 544.938,803.437C546.485,800.64 549.547,798.89 552.797,798.89C556.297,798.89 559.391,800.734 561.297,803.937C562.25,805.594 562.938,807.437 564.141,811.39L566.344,811.39L565.594,796.937" style="fill-rule:nonzero;"/>
    </g>
    <g transform="matrix(0.2,0,0,0.2,-63,-115)">
        <path d="M1475.87,796.594L1473.76,796.594L1462.26,825.734C1460.92,829.64 1459.62,830.844 1456.76,831.047L1456.56,831.047L1456.56,833.39L1469.81,833.39L1469.81,831.047L1468.81,831.047C1466.12,831.047 1464.76,830.094 1464.76,828.187C1464.76,827.547 1464.92,826.937 1465.22,826.094L1466.87,821.687L1480.12,821.687L1482.83,828.39C1483.12,829.187 1483.22,829.484 1483.22,829.734C1483.22,830.547 1481.97,831.047 1480.12,831.047L1478.01,831.047L1478.01,833.39L1493.51,833.39L1493.51,831.047L1492.83,831.047C1490.22,830.984 1489.76,830.687 1488.62,827.844L1475.87,796.594M1473.42,804.781L1479.06,818.984L1467.87,818.984L1473.42,804.781" style="fill-rule:nonzero;"/>
    </g>
    <g transform="matrix(0.2,0,0,0.2,-63,-115)">
        <path d="M2025.6,833.39L2042.4,833.39C2046.85,833.39 2050.26,832.687 2052.9,831.187C2057.94,828.344 2060.76,822.64 2060.76,815.14C2060.76,808.234 2058.26,802.844 2053.65,799.844C2050.9,798.094 2047.19,797.281 2041.49,797.281L2025.6,797.281L2025.6,799.64L2026.55,799.64C2029.35,799.687 2030.3,799.844 2030.69,800.344C2030.99,800.781 2030.99,800.89 2030.99,803.437L2030.99,827.234C2030.99,829.797 2030.99,829.89 2030.69,830.344C2030.3,830.844 2029.35,830.984 2026.55,831.047L2025.6,831.047L2025.6,833.39M2039.44,831.047C2036.9,831.047 2036.6,830.734 2036.6,828.297L2036.6,802.437C2036.6,799.984 2036.94,799.64 2039.44,799.64L2042.05,799.64C2050.6,799.64 2054.15,804.281 2054.15,815.344C2054.15,826.547 2050.94,831.047 2042.85,831.047L2039.44,831.047" style="fill-rule:nonzero;"/>
    </g>
    <g transform="matrix(0.2,0,0,0.2,-63,-115)">
        <path d="M920.784,797.281L890.737,797.281L890.737,799.64L891.627,799.64C894.487,799.687 895.44,799.844 895.831,800.344C896.127,800.781 896.127,800.89 896.127,803.437L896.127,827.234C896.127,829.797 896.127,829.89 895.831,830.344C895.44,830.844 894.487,831.047 891.627,831.047L890.737,831.047L890.737,833.39L921.44,833.39L922.44,820.047L920.237,820.047C918.331,828.937 916.284,830.844 908.627,831.047L905.331,831.047C902.331,830.937 901.581,830.437 901.737,828.64L901.737,815.89L902.737,815.89C907.877,815.687 909.737,817.547 909.94,823.094L912.284,823.094L912.284,806.687L909.94,806.687C909.627,811.594 907.69,813.547 902.94,813.547L901.737,813.547L901.737,802.14C901.69,800.031 902.19,799.687 904.877,799.64L907.487,799.64C915.69,799.594 917.737,801.39 919.331,810.047L921.487,810.047L920.784,797.281" style="fill-rule:nonzero;"/>
    </g>
    <g transform="matrix(0.2,0,0,0.2,-63,-115)">
        <path d="M2234.72,797.281L2204.67,797.281L2204.67,799.64L2205.56,799.64C2208.42,799.687 2209.38,799.844 2209.77,800.344C2210.06,800.781 2210.06,800.89 2210.06,803.437L2210.06,827.234C2210.06,829.797 2210.06,829.89 2209.77,830.344C2209.38,830.844 2208.42,831.047 2205.56,831.047L2204.67,831.047L2204.67,833.39L2235.38,833.39L2236.38,820.047L2234.17,820.047C2232.27,828.937 2230.22,830.844 2222.56,831.047L2219.27,831.047C2216.27,830.937 2215.52,830.437 2215.67,828.64L2215.67,815.89L2216.67,815.89C2221.81,815.687 2223.67,817.547 2223.88,823.094L2226.22,823.094L2226.22,806.687L2223.88,806.687C2223.56,811.594 2221.63,813.547 2216.88,813.547L2215.67,813.547L2215.67,802.14C2215.63,800.031 2216.13,799.687 2218.81,799.64L2221.42,799.64C2229.63,799.594 2231.67,801.39 2233.27,810.047L2235.42,810.047L2234.72,797.281" style="fill-rule:nonzero;"/>
    </g>
    <g transform="matrix(0.2,0,0,0.2,-63,-115)">
        <path d="M1099.06,797.281L1069.31,797.281L1069.31,799.64L1070.2,799.64C1073.06,799.687 1074.01,799.844 1074.4,800.344C1074.7,800.781 1074.7,800.89 1074.7,803.437L1074.7,827.234C1074.7,829.797 1074.7,829.89 1074.4,830.344C1074.01,830.844 1073.06,831.047 1070.2,831.047L1069.31,831.047L1069.31,833.39L1086.45,833.39L1086.45,831.047L1084.81,831.047C1081.95,831.047 1081.01,830.844 1080.61,830.344C1080.31,829.89 1080.31,829.734 1080.31,827.234L1080.31,815.89L1081.31,815.89C1086.45,815.687 1088.31,817.547 1088.51,823.094L1090.86,823.094L1090.86,806.687L1088.51,806.687C1088.2,811.594 1086.26,813.484 1081.51,813.547L1080.31,813.547L1080.31,802.14C1080.26,800.031 1080.76,799.687 1083.45,799.64L1085.76,799.64C1093.96,799.594 1096.01,801.437 1097.56,810.047L1099.76,810.047L1099.06,797.281" style="fill-rule:nonzero;"/>
    </g>
    <g transform="matrix(0.2,0,0,0.2,-63,-115)">
        <path d="M2412.99,797.281L2383.24,797.281L2383.24,799.64L2384.13,799.64C2386.99,799.687 2387.95,799.844 2388.34,800.344C2388.63,800.781 2388.63,800.89 2388.63,803.437L2388.63,827.234C2388.63,829.797 2388.63,829.89 2388.34,830.344C2387.95,830.844 2386.99,831.047 2384.13,831.047L2383.24,831.047L2383.24,833.39L2400.38,833.39L2400.38,831.047L2398.74,831.047C2395.88,831.047 2394.95,830.844 2394.54,830.344C2394.24,829.89 2394.24,829.734 2394.24,827.234L2394.24,815.89L2395.24,815.89C2400.38,815.687 2402.24,817.547 2402.45,823.094L2404.79,823.094L2404.79,806.687L2402.45,806.687C2402.13,811.594 2400.2,813.484 2395.45,813.547L2394.24,813.547L2394.24,802.14C2394.2,800.031 2394.7,799.687 2397.38,799.64L2399.7,799.64C2407.9,799.594 2409.95,801.437 2411.49,810.047L2413.7,810.047L2412.99,797.281" style="fill-rule:nonzero;"/>
    </g>
    <g transform="matrix(0.2,0,0,0.2,-63,-115)">
        <path d="M1636.54,797.281L1636.54,799.64L1637.44,799.64C1640.29,799.687 1641.24,799.844 1641.63,800.344C1641.94,800.781 1641.94,800.89 1641.94,803.437L1641.94,827.234C1641.94,829.797 1641.94,829.89 1641.63,830.344C1641.24,830.844 1640.29,831.047 1637.44,831.047L1636.54,831.047L1636.54,833.39L1654.69,833.39C1663.33,833.39 1668.54,829.734 1668.54,823.594C1668.54,818.594 1665.4,815.734 1658.54,814.547C1660.94,814.047 1662.04,813.594 1663.33,812.64C1665.4,811.094 1666.65,808.64 1666.65,806.14C1666.65,802.89 1664.65,799.734 1661.74,798.484C1659.94,797.687 1657.44,797.281 1654.49,797.281L1636.54,797.281M1647.54,813.547L1647.54,802.14C1647.54,800.187 1648.19,799.687 1650.83,799.64L1652.83,799.64C1657.74,799.64 1660.83,801.234 1660.83,806.687C1660.83,811.64 1658.44,813.547 1651.99,813.547L1647.54,813.547M1647.54,815.89L1651.94,815.89C1659.58,815.89 1662.4,817.937 1662.4,823.437C1662.4,830.14 1658.19,831.047 1652.54,831.047L1650.44,831.047C1647.94,831.047 1647.44,830.547 1647.54,827.89L1647.54,815.89" style="fill-rule:nonzero;"/>
    </g>
</svg>
